<svg xmlns="http://www.w3.org/2000/svg" viewBox="0 0 64 64">
  <defs>
    <linearGradient id="shield" x1="0%" y1="0%" x2="100%" y2="100%">
      <stop offset="0%" style="stop-color:#e8e8e8"/>
      <stop offset="50%" style="stop-color:#c0c0c0"/>
      <stop offset="100%" style="stop-color:#a0a0a0"/>
    </linearGradient>
    <linearGradient id="red" x1="0%" y1="0%" x2="100%" y2="100%">
      <stop offset="0%" style="stop-color:#dc143c"/>
      <stop offset="100%" style="stop-color:#b01030"/>
    </linearGradient>
  </defs>
  <!-- Shield outline -->
  <path d="M32 2 L58 12 L58 36 Q58 52 32 62 Q6 52 6 36 L6 12 Z" fill="url(#shield)" stroke="#888" stroke-width="1.5"/>
  <!-- Inner shield -->
  <path d="M32 6 L54 15 L54 35 Q54 49 32 58 Q10 49 10 35 L10 15 Z" fill="#1a1a2e"/>
  <!-- Red accent bottom -->
  <path d="M32 32 L50 24 L50 35 Q50 47 32 55 Q14 47 14 35 L14 24 Z" fill="url(#red)" opacity="0.9"/>
  <!-- M letter -->
  <text x="20" y="38" font-family="Arial,Helvetica,sans-serif" font-size="22" font-weight="900" fill="white" letter-spacing="-1">M</text>
  <!-- A letter -->
  <text x="35" y="44" font-family="Arial,Helvetica,sans-serif" font-size="20" font-weight="900" fill="url(#red)" letter-spacing="-1">A</text>
</svg>
